Coordinates
version=1
nRows=38
nColumns=12
inDegrees=yes

Units are S.I. units (second, meters, Newtons, ...)
Angles are in degrees

endheader
time	SC_y	SC_z	SC_x	AC_y	AC_z	AC_x	GH_y	GH_z	GH_yy	EL_x	PS_y
       0.0              -36.54         -4.735          10.39          45.27         -18.17         -2.254          131.3         -11.64          77.53          44.48          140.5
   0.04447              -36.54         -4.734          10.39          45.28         -18.17         -2.251          131.3         -11.63          77.53          44.48          140.5
   0.08894              -36.54         -4.734           10.4          45.28         -18.17         -2.249          131.2         -11.62          77.52          44.48          140.5
    0.1334              -36.53         -4.733          10.41          45.28         -18.16         -2.246          131.2         -11.62          77.51          44.48          140.5
    0.1779              -36.53         -4.732          10.42          45.29         -18.16         -2.243          131.1         -11.61           77.5          44.48          140.5
    0.2223              -36.53         -4.731          10.42          45.29         -18.16          -2.24          131.1          -11.6           77.5          44.49          140.5
    0.2668              -36.53         -4.731          10.43          45.29         -18.16         -2.237          131.1          -11.6          77.49          44.49          140.5
    0.3113              -36.52          -4.73          10.44           45.3         -18.16         -2.233          131.0         -11.59          77.48          44.49          140.5
    0.3557              -36.52         -4.729          10.45           45.3         -18.16         -2.229          130.9         -11.58          77.47          44.49          140.5
    0.4002              -36.52         -4.728          10.46           45.3         -18.15         -2.225          130.9         -11.57          77.46           44.5          140.5
    0.4447              -36.52         -4.727          10.48          45.31         -18.15         -2.221          130.8         -11.56          77.45           44.5          140.5
    0.4892              -36.51         -4.725          10.49          45.31         -18.15         -2.216          130.7         -11.55          77.44           44.5          140.4
    0.5336              -36.51         -4.724           10.5          45.32         -18.15         -2.211          130.7         -11.54          77.42          44.51          140.4
    0.5781               -36.5         -4.723          10.52          45.32         -18.15         -2.206          130.6         -11.52          77.41          44.51          140.4
    0.6226               -36.5         -4.721          10.53          45.33         -18.14           -2.2          130.5         -11.51          77.39          44.51          140.4
     0.667              -36.49          -4.72          10.55          45.34         -18.14         -2.194          130.4          -11.5          77.38          44.52          140.4
    0.7115              -36.49         -4.718          10.57          45.35         -18.14         -2.187          130.3         -11.48          77.36          44.52          140.4
     0.756              -36.48         -4.716          10.59          45.35         -18.13         -2.179          130.2         -11.46          77.34          44.53          140.4
    0.8004              -36.48         -4.714          10.61          45.36         -18.13         -2.171          130.1         -11.44          77.32          44.53          140.4
    0.8449              -36.47         -4.712          10.64          45.37         -18.12         -2.162          129.9         -11.42           77.3          44.54          140.4
    0.8894              -36.46         -4.709          10.66          45.38         -18.12         -2.152          129.8          -11.4          77.27          44.54          140.3
    0.9338              -36.45         -4.706          10.69          45.39         -18.11         -2.141          129.6         -11.37          77.24          44.55          140.3
    0.9783              -36.44         -4.703          10.73          45.41         -18.11         -2.129          129.4         -11.35          77.21          44.56          140.3
     1.023              -36.43           -4.7          10.76          45.42          -18.1         -2.116          129.2         -11.32          77.18          44.57          140.3
     1.067              -36.42         -4.696           10.8          45.44         -18.09         -2.101          129.0         -11.28          77.14          44.58          140.3
     1.112              -36.41         -4.692          10.85          45.46         -18.09         -2.085          128.8         -11.24           77.1          44.59          140.2
     1.156               -36.4         -4.687           10.9          45.48         -18.08         -2.066          128.5          -11.2          77.05           44.6          140.2
     1.201              -36.38         -4.682          10.96           45.5         -18.07         -2.045          128.2         -11.15           77.0          44.62          140.2
     1.245              -36.36         -4.676          11.02          45.52         -18.06         -2.022          127.8          -11.1          76.94          44.63          140.1
      1.29              -36.34         -4.669          11.09          45.55         -18.04         -1.995          127.4         -11.03          76.87          44.65          140.1
     1.334              -36.32         -4.661          11.18          45.58         -18.03         -1.965          126.9         -10.96          76.79          44.67          140.0
     1.379              -36.29         -4.652          11.27          45.62         -18.01          -1.93          126.4         -10.88           76.7          44.69          140.0
     1.423              -36.26         -4.642          11.38          45.67         -17.99         -1.889          125.8         -10.79           76.6          44.72          139.9
     1.467              -36.22          -4.63          11.51          45.72         -17.97         -1.842          125.1         -10.68          76.48          44.75          139.8
     1.512              -36.18         -4.616          11.66          45.77         -17.94         -1.788          124.3         -10.55          76.34          44.79          139.7
     1.556              -36.13           -4.6          11.83          45.84         -17.91         -1.723          123.3          -10.4          76.17          44.83          139.6
     1.601              -36.07          -4.58          12.04          45.93         -17.88         -1.646          122.1         -10.22          75.97          44.88          139.5
     1.645               -36.0         -4.557           12.3          46.03         -17.83         -1.554          120.7         -10.01          75.74          44.94          139.3
